<svg xml:space="preserve" width="360.4" height="228.085" xmlns="http://www.w3.org/2000/svg"><g style="fill:#0f7c8e;fill-opacity:1;stroke:none"><path d="m0 0-203.792-.211C-213.802-.222-222 7.96-222.01 17.969l-.109 104.454c-.01 10.01 8.171 18.208 18.181 18.218l203.792.212c10.01.01 18.208-8.171 18.218-18.181l.109-104.454C18.191 8.209 10.01.01 0 0" style="fill:#0f7c8e;fill-opacity:1;fill-rule:nonzero;stroke:none" transform="matrix(1.33333 0 0 -1.33333 316.159 207.804)"/></g><path d="m0 0-240.191-.249-.021 20.757 240.19.249z" style="fill:#414142;fill-opacity:1;fill-rule:nonzero;stroke:none" transform="matrix(1.33333 0 0 -1.33333 340.291 79.282)"/><path d="M0 0h-.021C-10.96-.012-19.851-8.921-19.84-19.86c.011-10.933 8.91-19.819 19.84-19.819h.021a19.706 19.706 0 0 1 14.022 5.825A19.708 19.708 0 0 1 19.84-19.82C19.828-8.887 10.929 0 0 0m0-40.526c-11.397 0-20.675 9.265-20.687 20.664C-20.699-8.455-11.428.835-.021.847H0c11.397 0 20.674-9.265 20.687-20.665a20.558 20.558 0 0 0-6.044-14.635A20.554 20.554 0 0 0 .021-40.526z" style="fill:#bcbec0;fill-opacity:1;fill-rule:nonzero;stroke:none" transform="matrix(1.33333 0 0 -1.33333 66.732 114.725)"/><path d="M0 0h-.021C-10.96-.012-19.851-8.92-19.84-19.86c.011-10.932 8.91-19.819 19.839-19.819H.02c10.94.012 19.83 8.921 19.819 19.86C19.828-8.886 10.93 0 0 0m-.001-40.525a20.545 20.545 0 0 0-14.611 6.044 20.546 20.546 0 0 0-6.075 14.62C-20.699-8.455-11.428.835-.021.847H0c11.397 0 20.674-9.265 20.686-20.664.012-11.407-9.258-20.697-20.665-20.708z" style="fill:#bcbec0;fill-opacity:1;fill-rule:nonzero;stroke:none" transform="matrix(1.33333 0 0 -1.33333 98.362 114.693)"/></svg>