<svg width="256" height="256" xmlns="http://www.w3.org/2000/svg"><circle cx="128" cy="128" fill="#00a995" r="128" style="stroke-width:.853333;fill:#007c95;fill-opacity:1"/><path d="M127.833 177.823c-7.474 0-13.524 6.228-13.524 13.88v2.668c0 7.652 6.05 13.702 13.524 13.702 7.473 0 13.701-6.05 13.701-13.702v-2.669c0-7.651-6.05-13.879-13.701-13.879zm-.178-129.896c-11.21 0-21.175 10.855-20.107 22.065l6.761 83.631c.356 6.584 5.517 12.278 12.278 12.812 7.652.534 14.413-5.338 14.947-12.812l6.94-83.631c.89-11.21-8.72-22.065-20.82-22.065Z" style="fill:#fff;fill-opacity:1;stroke-width:1.77889;stroke-miterlimit:4;stroke-dasharray:none"/></svg>