<svg width="256" height="256" xmlns="http://www.w3.org/2000/svg"><circle cx="128" cy="128" fill="#00a995" r="128" style="stroke-width:.853333;fill:#007c95;fill-opacity:1"/><path d="M76.526 93.103c0-6.52 2.092-13.126 6.28-19.817C86.99 66.594 93.1 61.052 101.13 56.659c8.03-4.391 17.398-6.59 28.105-6.59 9.95 0 18.737 1.838 26.355 5.509 7.618 3.673 13.502 8.666 17.656 14.98 4.151 6.315 6.227 13.177 6.227 20.589 0 5.834-1.183 10.948-3.55 15.34-2.368 4.392-5.184 8.184-8.443 11.375-3.26 3.191-9.112 8.563-17.553 16.11-2.333 2.13-4.205 4-5.611 5.612-1.406 1.613-2.453 3.088-3.14 4.427a21.475 21.475 0 0 0-1.595 4.014c-.378 1.339-.945 3.69-1.7 7.053-1.303 7.138-5.386 10.706-12.249 10.706-3.57 0-6.573-1.166-9.008-3.5-2.437-2.332-3.655-5.8-3.655-10.399 0-5.765.89-10.758 2.677-14.98 1.783-4.22 4.151-7.927 7.103-11.117 2.95-3.192 6.931-6.983 11.942-11.376 4.392-3.843 7.567-6.743 9.523-8.699a29.525 29.525 0 0 0 4.941-6.537c1.338-2.402 2.008-5.01 2.008-7.824 0-5.49-2.043-10.123-6.125-13.898-4.085-3.773-9.353-5.662-15.803-5.662-7.551 0-13.11 1.905-16.678 5.714-3.57 3.809-6.589 9.42-9.06 16.832-2.334 7.757-6.761 11.633-13.28 11.633-3.845 0-7.088-1.354-9.73-4.066-2.642-2.71-3.962-5.644-3.962-8.802zm50.239 112.827c-4.187 0-7.842-1.356-10.964-4.067-3.124-2.71-4.684-6.5-4.684-11.376 0-4.323 1.509-7.96 4.53-10.912 3.019-2.95 6.725-4.427 11.118-4.427 4.324 0 7.96 1.476 10.913 4.427 2.95 2.952 4.427 6.59 4.427 10.912 0 4.806-1.545 8.58-4.633 11.325-3.089 2.744-6.659 4.118-10.707 4.118z" fill="#fff" style="stroke-width:.853333"/></svg>