<svg width="256" height="256" viewBox="0 0 67.733 67.733" xmlns="http://www.w3.org/2000/svg"><path style="fill:#f4d608;fill-opacity:1;stroke:#f4d608;stroke-width:5;stroke-linejoin:round;stroke-miterlimit:4;stroke-dasharray:none;stroke-opacity:1" d="M149.2 34.18H-86.938L31.13-170.32Z" transform="matrix(.2809 0 0 .2809 25.122 52.987)"/><path d="M33.83 47.384c-1.63 0-2.95 1.358-2.95 3.028v.582c0 1.67 1.32 2.99 2.95 2.99a2.99 2.99 0 0 0 2.99-2.99v-.582c0-1.67-1.32-3.028-2.99-3.028zm-.039-28.343c-2.446 0-4.62 2.368-4.387 4.814l1.475 18.248c.078 1.437 1.204 2.68 2.68 2.796 1.669.116 3.144-1.165 3.26-2.796l1.515-18.248c.194-2.446-1.903-4.814-4.543-4.814z" style="stroke-width:.388252"/></svg>